<svg width="115" height="168" viewBox="0 0 115 168" fill="none" xmlns="http://www.w3.org/2000/svg">
<path fill-rule="evenodd" clip-rule="evenodd" d="M33.0204 28.432C32.4737 28.5108 32.0945 29.0179 32.1733 29.5645C32.2522 30.1111 32.7592 30.4903 33.3058 30.4115C34.0351 30.3063 34.6772 29.9423 35.1766 29.6042C35.4339 29.4301 35.6777 29.2454 35.8946 29.0788L36.0142 28.9868C36.1876 28.8532 36.3384 28.737 36.4833 28.6332C39.6123 26.3919 42.4446 23.7901 45.1558 21.1362C47.2793 22.9784 49.3408 24.8879 51.3866 26.8515C51.7327 27.1837 52.0828 27.418 52.4092 27.6246C52.4826 27.671 52.554 27.7156 52.6247 27.7598C52.8782 27.9181 53.1213 28.0699 53.4009 28.2726C53.8481 28.5968 54.4733 28.497 54.7975 28.0499C55.1216 27.6027 55.0219 26.9775 54.5748 26.6533C54.2335 26.4059 53.9182 26.2092 53.6588 26.0474L53.6588 26.0474C53.5953 26.0078 53.5351 25.9702 53.4788 25.9346C53.1823 25.747 52.9694 25.5985 52.7716 25.4086C50.7466 23.4651 48.6977 21.5657 46.5825 19.7263C46.647 19.6621 46.7114 19.598 46.7757 19.5338C49.2844 17.0319 51.6381 14.4076 53.8729 11.6673C53.8698 11.6711 53.8702 11.6707 53.8761 11.6644C53.8853 11.6546 53.9078 11.6308 53.9506 11.5874C53.9927 11.5447 54.0404 11.4971 54.0952 11.4424L54.1721 11.3656C54.3385 11.1993 54.5535 10.9823 54.7264 10.7836C54.8107 10.6867 54.9083 10.5678 54.9885 10.4445C55.028 10.3839 55.0813 10.295 55.1249 10.1877C55.1589 10.1042 55.2427 9.87945 55.1993 9.59559C55.1747 9.43484 55.1083 9.25274 54.9727 9.08842C54.838 8.92536 54.6754 8.82843 54.5315 8.77456C54.2762 8.67895 54.0482 8.70551 53.954 8.71963C53.7425 8.75133 53.5323 8.8354 53.3671 8.90895C52.9602 9.09012 52.7339 9.50969 52.7794 9.92996L52.758 9.95131L52.6958 10.0133L52.6958 10.0134C52.5671 10.1413 52.4051 10.3026 52.323 10.4033C50.1277 13.0952 47.8197 15.6681 45.3634 18.1177C45.2617 18.219 45.1601 18.3203 45.0583 18.4215C44.3614 17.8346 43.6565 17.2545 42.9421 16.6815C40.2165 14.4955 37.4614 12.3231 34.6586 10.219C34.6097 10.1823 34.5395 10.1238 34.4421 10.0418L34.4268 10.0289C34.3478 9.96245 34.24 9.87163 34.1502 9.8052L34.1472 9.80299C34.1137 9.77816 34.006 9.69829 33.8731 9.64129C33.8316 9.62348 33.7589 9.59512 33.6652 9.57616C33.5822 9.55938 33.4004 9.53244 33.1824 9.59507C32.921 9.67013 32.6832 9.85417 32.552 10.1275C32.4419 10.357 32.4478 10.5645 32.4568 10.6613C32.4739 10.8456 32.5388 10.9843 32.5563 11.0218L32.557 11.0233C32.5848 11.0827 32.6146 11.1343 32.6373 11.1717C32.6836 11.2479 32.7409 11.3309 32.8022 11.4156C32.9645 11.64 33.2027 11.7771 33.4562 11.8172L33.4579 11.8185C36.2363 13.9044 38.9728 16.0619 41.6908 18.2417C42.3439 18.7655 42.9894 19.2958 43.6285 19.8323C40.9857 22.4136 38.281 24.8854 35.3187 27.0073C35.1427 27.1334 34.9579 27.2758 34.7835 27.4101L34.7835 27.4101L34.6763 27.4927C34.4635 27.6561 34.2598 27.8097 34.0554 27.948C33.6315 28.235 33.2945 28.3925 33.0204 28.432ZM32.9616 11.4137L32.9607 11.413C32.9544 11.4084 32.9511 11.4061 32.9505 11.4059C32.9498 11.4055 32.9537 11.4085 32.9616 11.4137Z" fill="#F7B404"/>
<path fill-rule="evenodd" clip-rule="evenodd" d="M18.282 157.383C17.9512 157.826 18.0416 158.452 18.4839 158.783C18.9261 159.114 19.5528 159.024 19.8836 158.581C20.225 158.125 20.3684 157.588 20.4478 157.176C20.4892 156.961 20.5183 156.749 20.5423 156.566L20.5557 156.463C20.5745 156.318 20.5901 156.198 20.6086 156.087C21.0168 153.617 21.1343 151.122 21.167 148.668C22.9417 148.548 24.7207 148.482 26.5179 148.445C26.8735 148.438 27.1768 148.377 27.4353 148.319C27.4957 148.305 27.553 148.292 27.6087 148.279L27.6088 148.279C27.8021 148.234 27.9762 148.194 28.1929 148.16C28.7383 148.073 29.1099 147.56 29.0229 147.015C28.936 146.469 28.4233 146.098 27.8779 146.185C27.5861 146.231 27.3291 146.291 27.1291 146.337L27.1291 146.337C27.0816 146.348 27.0373 146.358 26.9966 146.367C26.7726 146.418 26.6271 146.442 26.4769 146.446C24.7076 146.482 22.9449 146.547 21.179 146.663C21.176 144.331 21.0474 142.014 20.8123 139.7C20.813 139.707 20.813 139.683 20.8129 139.598L20.8128 139.448C20.8128 139.291 20.812 139.075 20.7989 138.886C20.7925 138.795 20.7811 138.674 20.756 138.556C20.7437 138.497 20.7216 138.408 20.6801 138.309C20.6486 138.234 20.553 138.022 20.3261 137.856C20.1974 137.761 20.024 137.68 19.8145 137.66C19.6065 137.64 19.4257 137.686 19.2887 137.749C19.0462 137.859 18.91 138.033 18.8603 138.1C18.7471 138.254 18.6743 138.429 18.6291 138.546C18.4911 138.906 18.5745 139.296 18.8126 139.566C18.8125 139.678 18.8136 139.814 18.8225 139.902C19.0567 142.206 19.1817 144.507 19.179 146.818C18.6679 146.863 18.1562 146.914 17.6437 146.97C15.3117 147.227 12.9701 147.504 10.6371 147.836C10.6074 147.84 10.5564 147.845 10.4684 147.852L10.4534 147.854L10.4533 147.854C10.3866 147.859 10.2822 147.868 10.1972 147.881L10.1937 147.881C10.163 147.886 10.0415 147.904 9.91458 147.954C9.87414 147.971 9.80391 148.001 9.72519 148.054C9.65561 148.1 9.5087 148.209 9.39917 148.406C9.26779 148.644 9.22987 148.941 9.33012 149.227C9.41426 149.466 9.56458 149.608 9.63848 149.669C9.7783 149.785 9.91836 149.836 9.95364 149.849L9.95561 149.849C10.0125 149.87 10.0638 149.884 10.0984 149.892C10.1691 149.909 10.2457 149.923 10.3183 149.935C10.56 149.974 10.7953 149.922 10.9901 149.806C13.2696 149.482 15.5638 149.211 17.8621 148.958C18.2964 148.911 18.7305 148.867 19.1645 148.827C19.1288 151.174 19.0109 153.489 18.6354 155.76C18.6106 155.91 18.5896 156.072 18.5706 156.219L18.5592 156.306C18.5359 156.484 18.5132 156.645 18.4839 156.797C18.4217 157.12 18.348 157.295 18.282 157.383Z" fill="#626368"/>
<path fill-rule="evenodd" clip-rule="evenodd" d="M92.2735 131.085C94.2464 131.786 96.0518 132.632 97.806 133.613C93.4404 125.679 87.654 118.724 81.4285 111.552C81.111 111.215 80.8062 110.889 80.5056 110.568L80.5056 110.568L80.5055 110.568C78.5667 108.497 76.8059 106.615 72.9918 103.271C72.5765 102.907 72.5351 102.275 72.8992 101.86C73.2633 101.445 73.8951 101.403 74.3103 101.767C78.1998 105.178 80.0166 107.119 81.9664 109.202L81.9664 109.202C82.2707 109.527 82.5782 109.856 82.8973 110.194L82.9116 110.209L82.9253 110.225C89.1406 117.385 95.0463 124.467 99.5279 132.594C99.8181 130.997 100.183 129.426 100.59 127.849C100.667 127.549 100.744 127.248 100.821 126.946C101.479 124.378 102.155 121.738 103.054 119.194C103.238 118.674 103.809 118.401 104.33 118.585C104.85 118.768 105.123 119.34 104.939 119.861C104.072 122.315 103.419 124.866 102.758 127.445L102.758 127.445C102.681 127.746 102.604 128.046 102.526 128.347C101.861 130.931 101.323 133.439 101.046 136.045C100.991 136.563 100.55 136.946 100.039 136.939C99.7795 137.006 99.4934 136.969 99.2494 136.813C96.7714 135.227 94.351 133.946 91.6037 132.97C91.3749 132.888 91.1477 132.807 90.9217 132.726L90.9216 132.726C89.9076 132.363 88.9175 132.009 87.9103 131.698C87.7627 131.652 87.644 131.612 87.5431 131.579L87.5428 131.579L87.5427 131.579C87.3173 131.504 87.1811 131.458 87.0109 131.44C86.4617 131.382 86.0638 130.89 86.1221 130.34C86.1805 129.791 86.673 129.393 87.2222 129.452C87.6291 129.495 88.0521 129.637 88.3293 129.73C88.3957 129.753 88.4538 129.772 88.5012 129.787C89.5543 130.113 90.5942 130.485 91.6102 130.848C91.8325 130.928 92.0536 131.007 92.2735 131.085Z" fill="white"/>
</svg>
