<svg width="115" height="168" viewBox="0 0 115 168" fill="none" xmlns="http://www.w3.org/2000/svg">
<path fill-rule="evenodd" clip-rule="evenodd" d="M33.0204 138.905C32.4737 138.826 32.0945 138.319 32.1733 137.772C32.2522 137.226 32.7592 136.846 33.3058 136.925C34.0351 137.03 34.6772 137.394 35.1766 137.732C35.4339 137.907 35.6777 138.091 35.8946 138.258L36.0142 138.35C36.1876 138.483 36.3384 138.6 36.4833 138.703C39.6123 140.945 42.4446 143.547 45.1558 146.201C47.2793 144.358 49.3408 142.449 51.3866 140.485C51.7327 140.153 52.0828 139.919 52.4092 139.712C52.4826 139.666 52.554 139.621 52.6247 139.577C52.8782 139.419 53.1213 139.267 53.4009 139.064C53.8481 138.74 54.4733 138.84 54.7975 139.287C55.1216 139.734 55.0219 140.359 54.5748 140.683C54.2335 140.931 53.9182 141.127 53.6588 141.289L53.6588 141.289C53.5953 141.329 53.5351 141.366 53.4788 141.402C53.1824 141.59 52.9694 141.738 52.7715 141.928C50.7466 143.872 48.6977 145.771 46.5825 147.61C46.647 147.675 46.7114 147.739 46.7757 147.803C49.2844 150.305 51.6381 152.929 53.8729 155.669C53.8698 155.666 53.8702 155.666 53.8761 155.672C53.8853 155.682 53.9078 155.706 53.9506 155.749C53.9927 155.792 54.0404 155.84 54.0952 155.894L54.1721 155.971C54.3385 156.137 54.5535 156.354 54.7264 156.553C54.8107 156.65 54.9083 156.769 54.9885 156.892C55.028 156.953 55.0813 157.042 55.1249 157.149C55.1589 157.233 55.2427 157.457 55.1993 157.741C55.1747 157.902 55.1083 158.084 54.9727 158.248C54.838 158.411 54.6754 158.508 54.5315 158.562C54.2762 158.658 54.0482 158.631 53.954 158.617C53.7425 158.585 53.5323 158.501 53.3671 158.428C52.9602 158.247 52.7339 157.827 52.7794 157.407L52.758 157.385L52.6958 157.323L52.6958 157.323C52.5671 157.195 52.4051 157.034 52.323 156.933C50.1277 154.242 47.8197 151.669 45.3634 149.219C45.2617 149.118 45.1601 149.016 45.0583 148.915C44.3614 149.502 43.6565 150.082 42.9421 150.655C40.2165 152.841 37.4614 155.014 34.6586 157.118C34.6097 157.154 34.5395 157.213 34.4421 157.295L34.4268 157.308C34.3478 157.374 34.24 157.465 34.1502 157.531L34.1472 157.534C34.1137 157.559 34.006 157.638 33.8731 157.695C33.8316 157.713 33.7589 157.742 33.6652 157.761C33.5822 157.777 33.4004 157.804 33.1824 157.742C32.921 157.667 32.6832 157.482 32.552 157.209C32.4418 156.98 32.4478 156.772 32.4568 156.675C32.4739 156.491 32.5388 156.352 32.5563 156.315L32.557 156.313C32.5848 156.254 32.6146 156.202 32.6373 156.165C32.6836 156.089 32.7409 156.006 32.8022 155.921C32.9645 155.697 33.2027 155.56 33.4562 155.519L33.4579 155.518C36.2363 153.432 38.9728 151.275 41.6908 149.095C42.3439 148.571 42.9894 148.041 43.6285 147.504C40.9857 144.923 38.281 142.451 35.3187 140.329C35.1427 140.203 34.9579 140.061 34.7836 139.927L34.7835 139.927L34.6763 139.844C34.4635 139.681 34.2598 139.527 34.0554 139.389C33.6315 139.102 33.2945 138.944 33.0204 138.905ZM32.9607 155.924L32.9616 155.923C32.9477 155.932 32.9462 155.934 32.9607 155.924Z" fill="#F7B404"/>
<path fill-rule="evenodd" clip-rule="evenodd" d="M18.281 9.95361C17.9502 9.51135 18.0406 8.88466 18.4829 8.55388C18.9251 8.2231 19.5518 8.31347 19.8826 8.75574C20.224 9.21221 20.3674 9.74914 20.4468 10.1612C20.4882 10.3762 20.5173 10.5878 20.5413 10.7706L20.5547 10.8736L20.5547 10.8737C20.5736 11.0188 20.5891 11.1386 20.6076 11.2504C21.0159 13.7202 21.1333 16.2146 21.166 18.6689C22.9407 18.7886 24.7197 18.855 26.5169 18.8919C26.8725 18.8992 27.1758 18.9601 27.4343 19.0182C27.4947 19.0318 27.552 19.045 27.6077 19.0579L27.6078 19.0579C27.8011 19.1026 27.9752 19.1428 28.1919 19.1774C28.7373 19.2644 29.1089 19.777 29.022 20.3224C28.935 20.8678 28.4224 21.2394 27.877 21.1524C27.5851 21.1059 27.3281 21.0463 27.1281 21L27.1281 21C27.0806 20.9889 27.0364 20.9787 26.9956 20.9695C26.7717 20.9192 26.6261 20.8945 26.476 20.8915C24.7066 20.8552 22.9439 20.7904 21.178 20.6741C21.1751 23.0061 21.0465 25.3227 20.8113 27.6372C20.812 27.6303 20.812 27.6536 20.8119 27.7389L20.8118 27.889C20.8119 28.0458 20.811 28.2617 20.7979 28.4509C20.7915 28.5423 20.7802 28.6627 20.7551 28.7814C20.7427 28.8397 20.7206 28.9295 20.6792 29.0278C20.6476 29.1025 20.552 29.3146 20.3252 29.4813C20.1964 29.5759 20.0231 29.6567 19.8135 29.6767C19.6055 29.6966 19.4247 29.6506 19.2877 29.5883C19.0452 29.4779 18.909 29.3037 18.8594 29.2365C18.7461 29.0832 18.6734 28.9083 18.6281 28.7905C18.4901 28.431 18.5736 28.0409 18.8116 27.7706C18.8115 27.6593 18.8126 27.5226 18.8216 27.435C19.0557 25.1307 19.1807 22.8305 19.178 20.5194C18.6669 20.4736 18.1552 20.4229 17.6427 20.3666C15.3108 20.1104 12.9691 19.8335 10.6361 19.5013C10.6064 19.4971 10.5554 19.4923 10.4674 19.4847L10.4524 19.4834L10.4524 19.4834C10.3857 19.4777 10.2812 19.4688 10.1962 19.4561L10.1927 19.4555L10.1927 19.4555C10.162 19.451 10.0405 19.4332 9.91361 19.3825C9.87316 19.3664 9.80294 19.3356 9.72421 19.2834C9.65463 19.2372 9.50773 19.1284 9.39819 18.9306C9.26682 18.6934 9.22889 18.3958 9.32915 18.1104C9.41328 17.871 9.56361 17.7292 9.63751 17.6679C9.77732 17.5519 9.91738 17.5011 9.95267 17.4883L9.95464 17.4876C10.0116 17.4669 10.0628 17.4533 10.0974 17.4449C10.1681 17.4276 10.2447 17.4138 10.3173 17.4022C10.559 17.3634 10.7943 17.4147 10.9891 17.5314C13.2686 17.8548 15.5628 18.126 17.8611 18.3785C18.2954 18.4263 18.7295 18.4699 19.1635 18.5098C19.1278 16.1626 19.0099 13.8482 18.6344 11.5766C18.6097 11.427 18.5886 11.2646 18.5697 11.1183L18.5583 11.0307C18.535 10.853 18.5122 10.6917 18.4829 10.5395C18.4208 10.217 18.347 10.0419 18.281 9.95361Z" fill="#626368"/>
<path fill-rule="evenodd" clip-rule="evenodd" d="M92.2735 36.2517C94.2464 35.5505 96.0518 34.7046 97.806 33.724C93.4404 41.6572 87.654 48.6124 81.4285 55.7851C81.111 56.1215 80.8062 56.4472 80.5056 56.7684L80.5056 56.7684L80.5055 56.7684C78.5667 58.8399 76.8059 60.7212 72.9918 64.0653C72.5765 64.4294 72.5351 65.0613 72.8992 65.4765C73.2633 65.8918 73.8951 65.9333 74.3103 65.5692C78.1998 62.159 80.0166 60.2178 81.9664 58.1344L81.9664 58.1344C82.2707 57.8093 82.5782 57.4807 82.8973 57.1426L82.9116 57.1275L82.9253 57.1117C89.1406 49.9512 95.0463 42.8697 99.5279 34.7431C99.8181 36.3393 100.183 37.9105 100.59 39.4881C100.667 39.7879 100.744 40.089 100.821 40.3911C101.479 42.9586 102.155 45.5984 103.054 48.1423C103.238 48.6631 103.809 48.9361 104.33 48.7521C104.85 48.5682 105.123 47.9969 104.939 47.4762C104.072 45.0216 103.419 42.4709 102.758 39.8915C102.681 39.5912 102.604 39.2904 102.526 38.9894C101.861 36.406 101.323 33.8974 101.046 31.2921C100.991 30.7742 100.55 30.3908 100.039 30.3977C99.7795 30.3305 99.4934 30.3674 99.2494 30.5236C96.7714 32.1101 94.351 33.3908 91.6037 34.3671C91.3749 34.4485 91.1477 34.5297 90.9217 34.6106L90.9216 34.6106C89.9076 34.9734 88.9175 35.3276 87.9103 35.6391C87.7627 35.6847 87.644 35.7242 87.5431 35.7578L87.5428 35.7579L87.5427 35.7579C87.3173 35.8329 87.1811 35.8782 87.0109 35.8963C86.4617 35.9546 86.0638 36.4471 86.1221 36.9963C86.1805 37.5455 86.673 37.9434 87.2222 37.8851C87.6291 37.8419 88.0521 37.6996 88.3293 37.6063L88.3293 37.6063L88.3302 37.606C88.3963 37.5838 88.454 37.5644 88.5012 37.5498C89.5543 37.2241 90.5942 36.852 91.6102 36.4885C91.8325 36.4089 92.0536 36.3298 92.2735 36.2517Z" fill="white"/>
</svg>
