<?xml version="1.0" standalone="no"?>
<!DOCTYPE svg PUBLIC "-//W3C//DTD SVG 20010904//EN"
 "http://www.w3.org/TR/2001/REC-SVG-20010904/DTD/svg10.dtd">
<svg version="1.0" xmlns="http://www.w3.org/2000/svg"
 width="200.000000pt" height="200.000000pt" viewBox="0 0 200.000000 200.000000"
 preserveAspectRatio="xMidYMid meet">

<g transform="translate(0.000000,200.000000) scale(0.100000,-0.100000)"
fill="#000000" stroke="none">
<path d="M910 1496 c0 -18 -3 -47 -6 -64 -5 -27 -12 -32 -47 -38 -38 -6 -44
-4 -62 21 -54 74 -45 70 -101 42 -27 -14 -70 -41 -96 -59 l-47 -34 30 -44 c66
-98 65 -95 21 -153 -53 -69 -79 -123 -97 -199 -64 -271 100 -542 370 -613 318
-82 636 167 635 499 0 110 -45 232 -114 315 -20 24 -36 46 -36 50 0 4 20 39
44 76 l44 69 -42 31 c-22 18 -66 45 -96 60 -60 31 -51 34 -105 -40 -18 -25
-24 -27 -62 -21 -35 6 -42 11 -47 38 -3 17 -6 46 -6 64 l0 34 -90 0 -90 0 0
-34z m105 -61 c0 -58 -3 -70 -17 -73 -16 -3 -18 6 -18 73 0 67 2 76 18 73 14
-3 17 -15 17 -73z m-286 1 c9 -10 3 -19 -29 -40 -23 -15 -38 -31 -35 -36 4 -6
16 -3 30 6 42 28 62 -4 23 -36 -19 -15 -21 -20 -9 -34 12 -15 12 -19 -1 -32
-14 -14 -20 -10 -57 42 -22 31 -41 62 -41 68 0 10 86 74 101 75 4 1 12 -5 18
-13z m611 -18 c27 -18 50 -38 50 -45 0 -23 -20 -24 -49 -4 -16 12 -34 21 -40
21 -12 0 -16 -20 -3 -20 4 0 16 -7 26 -15 16 -12 17 -17 6 -30 -12 -14 -15
-14 -38 1 -24 16 -26 15 -41 -5 -14 -18 -19 -19 -33 -9 -15 12 -12 19 24 76
22 34 42 62 44 62 2 0 27 -15 54 -32z m-237 -93 c88 -18 176 -66 240 -131 52
-51 112 -145 105 -164 -2 -6 -30 9 -62 32 l-59 42 27 23 c15 13 22 23 17 23
-6 0 -20 -9 -31 -20 -19 -19 -22 -19 -50 -5 -42 22 -90 19 -130 -9 -33 -22
-43 -23 -126 -19 -84 5 -92 4 -117 -18 -21 -18 -30 -39 -39 -85 -14 -78 -8
-94 36 -94 l34 0 6 -97 c3 -54 10 -123 16 -154 5 -30 10 -76 10 -101 0 -53
-17 -109 -28 -91 -7 11 -32 17 -61 14 -14 -1 -12 -43 4 -84 7 -16 4 -17 -21
-11 -159 37 -326 210 -350 364 l-7 45 48 -60 c74 -93 155 -173 215 -214 69
-47 80 -53 80 -47 0 3 -26 22 -57 42 -70 44 -170 144 -241 238 -48 63 -52 73
-51 120 3 106 29 151 40 68 3 -27 15 -52 32 -70 15 -16 27 -40 27 -54 0 -39
34 -74 85 -88 27 -8 55 -24 68 -40 12 -16 40 -35 61 -44 38 -16 40 -16 72 9
47 36 51 62 19 141 -46 115 -46 114 -66 103 -22 -11 -25 -2 -5 20 7 9 16 44
19 78 4 53 2 64 -15 80 -24 22 -75 22 -141 -1 -55 -18 -71 -20 -62 -6 3 5 37
19 76 32 69 22 71 22 120 4 61 -21 75 -13 34 20 -45 36 -71 40 -128 16 -56
-24 -67 -20 -87 29 -12 29 -11 32 21 59 45 39 142 90 169 90 12 0 31 -5 42
-11 21 -11 21 -12 3 -25 -22 -16 -12 -19 15 -4 26 14 73 -24 50 -40 -12 -8 -9
-9 10 -5 31 6 83 -30 62 -44 -9 -5 -4 -8 16 -7 17 1 28 4 26 8 -3 4 4 12 13
18 15 8 13 9 -9 4 -19 -4 -35 0 -53 14 -24 19 -25 21 -8 32 16 10 15 10 -5 5
-14 -4 -33 0 -48 10 -22 14 -23 19 -12 32 11 14 11 15 -7 6 -15 -8 -27 -8 -45
2 -19 10 -21 15 -10 19 52 18 131 19 213 1z m-440 -187 c12 -21 15 -34 8 -36
-6 -2 -35 -21 -63 -43 -29 -21 -56 -39 -60 -39 -5 0 1 19 13 43 24 48 67 107
77 107 4 0 15 -15 25 -32z m618 -44 c41 -21 33 -25 -19 -11 -35 9 -48 9 -69
-3 -23 -14 -26 -21 -28 -84 -2 -63 0 -71 24 -94 25 -23 21 -24 -24 -6 -9 4
-17 -1 -21 -12 -4 -11 -17 -46 -31 -79 -19 -47 -23 -53 -19 -25 3 19 8 46 12
59 5 18 4 23 -7 19 -9 -3 -15 -23 -17 -57 -2 -29 -7 -49 -13 -46 -12 8 -11 39
3 102 12 49 14 51 39 46 24 -4 28 -1 34 26 3 17 5 56 4 86 -3 52 -1 57 27 75
36 23 66 24 105 4z m200 -152 c34 -167 -35 -360 -170 -470 -57 -46 -78 -51
-111 -24 l-22 18 30 50 c16 27 38 72 48 99 21 56 35 74 81 100 27 16 35 29 47
79 9 34 25 90 37 126 12 36 23 71 25 78 7 26 23 1 35 -56z m-372 -294 c12 -32
26 -34 95 -13 27 8 51 13 53 12 6 -6 -76 -164 -92 -177 -8 -7 -30 -16 -48 -20
-27 -7 -28 -8 -7 -9 14 0 31 3 39 8 15 10 73 -18 68 -34 -5 -15 -103 -45 -170
-52 l-62 -6 32 31 c46 47 58 91 58 225 0 123 -1 122 34 35z"/>
<path d="M915 839 c14 -46 25 -56 23 -20 -2 19 -9 36 -17 39 -10 3 -11 -2 -6
-19z"/>
<path d="M300 546 c0 -2 8 -10 18 -17 15 -13 16 -12 3 4 -13 16 -21 21 -21 13z"/>
</g>
</svg>
